<svg width="48" height="48" viewBox="0 0 48 48" xmlns="http://www.w3.org/2000/svg">
  <defs>
    <linearGradient id="grad" x1="0%" y1="0%" x2="100%" y2="100%">
      <stop offset="0%" stop-color="#1d4ed8"/>
      <stop offset="100%" stop-color="#2563eb"/>
    </linearGradient>
  </defs>
  <rect x="4" y="4" width="40" height="40" rx="12" fill="url(#grad)"/>
  <path d="M18.9 31.5h-3.8l6.4-15h3.1l6.4 15h-3.9l-1.1-2.9h-6zM24 19.8l-1.9 4.9h3.8z" fill="#ffffff"/>
  <path d="M30.2 32c2.5 0 4.2-1.2 4.2-3.2 0-1.5-1-2.4-3.1-2.9l-1.5-.3c-0.8-0.2-1.2-0.5-1.2-1 0-0.7 0.7-1.1 1.9-1.1 0.9 0 1.9 0.2 2.9 0.6l0.9-2.3a9 9 0 0 0-3.6-0.7c-2.5 0-4.2 1.3-4.2 3.2 0 1.5 1 2.4 3 2.9l1.5 0.4c0.9 0.2 1.3 0.5 1.3 1 0 0.7-0.8 1.1-2.2 1.1-1.1 0-2.4-0.3-3.5-0.9l-0.9 2.3c1.2 0.6 2.7 0.9 4.4 0.9z" fill="#bfdbfe"/>
</svg>


